<svg width="137" height="47" viewBox="0 0 137 47" fill="none" xmlns="http://www.w3.org/2000/svg">
<path d="M59.6612 23.0356V12.8171H55.9471V10.3804H66.539V12.8171H62.825V23.0356H59.6612ZM67.9596 23.0356V10.3804H74.2872C75.7807 10.3804 76.8811 10.7734 77.5886 11.5594C78.296 12.3455 78.6497 13.4001 78.6497 14.7233C78.6497 15.5748 78.4336 16.3215 78.0013 16.9635C77.5689 17.6054 76.9794 18.0836 76.2327 18.398C76.4161 18.5421 76.5602 18.7059 76.665 18.8893C76.7829 19.0596 76.9073 19.3019 77.0384 19.6164L78.5318 23.0356H75.2305L73.8156 19.8129C73.6977 19.5378 73.547 19.3413 73.3636 19.2233C73.1802 19.0923 72.9182 19.0268 72.5776 19.0268H71.1234V23.0356H67.9596ZM71.1234 16.5901H73.4619C74.0776 16.5901 74.5558 16.4394 74.8964 16.1381C75.2501 15.8237 75.427 15.3521 75.427 14.7233C75.427 13.4525 74.8178 12.8171 73.5994 12.8171H71.1234V16.5901ZM80.2607 23.0356V10.3804H83.4245V23.0356H80.2607ZM85.4229 23.0356V10.3804H88.1347L93.5191 17.946V10.3804H96.7026V23.0356H93.9711L88.5867 15.4896V23.0356H85.4229ZM98.7027 23.0356V10.3804H108.037V12.8171H101.867V15.47H107.31V17.946H101.867V20.5989H108.037V23.0356H98.7027ZM108.653 23.0356L113.271 16.6687L108.791 10.3804H112.564L115.177 14.1534L117.811 10.3804H121.584L117.103 16.6687L121.721 23.0356H117.909L115.177 19.2037L112.466 23.0356H108.653ZM122.336 23.0356L127.17 10.3804H130.59L135.424 23.0356H132.122L130.983 20.1666H126.758L125.637 23.0356H122.336ZM127.19 17.8281H130.55L128.86 13.4263L127.19 17.8281Z" fill="black"/>
<path d="M56.4777 36.2623V27.8286H62.5279V29.2037H58.2456V31.3645H62.0433V32.7264H58.2456V34.9003H62.5279V36.2623H56.4777ZM63.7545 36.2623V27.8286H65.2867L69.2809 33.4467V27.8286H71.0488V36.2623H69.5166L65.5224 30.6442V36.2623H63.7545ZM74.6095 36.2623V29.1906H72.0166V27.8286H78.9573V29.1906H76.3774V36.2623H74.6095ZM79.9323 36.2623V27.8286H85.9826V29.2037H81.7002V31.3645H85.498V32.7264H81.7002V34.9003H85.9826V36.2623H79.9323ZM87.2092 36.2623V27.8286H91.2557C92.2248 27.8286 92.9364 28.0862 93.3903 28.6013C93.8443 29.1076 94.0713 29.793 94.0713 30.6573C94.0713 31.2248 93.9229 31.7137 93.6261 32.124C93.338 32.5343 92.9276 32.8312 92.3951 33.0145C92.5348 33.128 92.6439 33.2502 92.7225 33.3812C92.8098 33.5122 92.8971 33.6868 92.9844 33.905L94.0058 36.2623H92.1724L91.1772 33.9967C91.0899 33.8046 90.9938 33.6693 90.8891 33.5907C90.7843 33.5122 90.6097 33.4729 90.3652 33.4729H88.9771V36.2623H87.2092ZM88.9771 32.0062H90.7974C91.2601 32.0062 91.6224 31.9058 91.8843 31.705C92.1462 31.4954 92.2772 31.1462 92.2772 30.6573C92.2772 30.1858 92.1637 29.841 91.9367 29.6227C91.7097 29.4045 91.3649 29.2953 90.9022 29.2953H88.9771V32.0062ZM95.3045 36.2623V27.8286H99.2594C99.9229 27.8286 100.464 27.9552 100.883 28.2084C101.311 28.4616 101.63 28.8064 101.839 29.243C102.049 29.6795 102.154 30.1771 102.154 30.7359C102.154 31.3033 102.031 31.8054 101.787 32.2419C101.551 32.6784 101.211 33.0189 100.765 33.2633C100.329 33.4991 99.8094 33.6169 99.207 33.6169H97.0724V36.2623H95.3045ZM97.0724 32.2157H98.8403C99.3467 32.2157 99.7265 32.0847 99.9796 31.8228C100.242 31.5522 100.373 31.1899 100.373 30.7359C100.373 30.247 100.25 29.8759 100.006 29.6227C99.7614 29.3608 99.3947 29.2299 98.9058 29.2299H97.0724V32.2157ZM103.131 36.2623V27.8286H107.178C108.147 27.8286 108.858 28.0862 109.312 28.6013C109.766 29.1076 109.993 29.793 109.993 30.6573C109.993 31.2248 109.845 31.7137 109.548 32.124C109.26 32.5343 108.85 32.8312 108.317 33.0145C108.457 33.128 108.566 33.2502 108.645 33.3812C108.732 33.5122 108.819 33.6868 108.906 33.905L109.928 36.2623H108.094L107.099 33.9967C107.012 33.8046 106.916 33.6693 106.811 33.5907C106.706 33.5122 106.532 33.4729 106.287 33.4729H104.899V36.2623H103.131ZM104.899 32.0062H106.719C107.182 32.0062 107.544 31.9058 107.806 31.705C108.068 31.4954 108.199 31.1462 108.199 30.6573C108.199 30.1858 108.086 29.841 107.859 29.6227C107.632 29.4045 107.287 29.2953 106.824 29.2953H104.899V32.0062ZM111.227 36.2623V27.8286H112.994V36.2623H111.227ZM117.107 36.3932C116.566 36.3932 116.059 36.3539 115.588 36.2754C115.125 36.1968 114.723 36.0833 114.383 35.9349V34.3765C114.767 34.5336 115.182 34.6602 115.627 34.7563C116.072 34.8523 116.509 34.9003 116.937 34.9003C117.548 34.9003 117.997 34.8436 118.285 34.7301C118.574 34.6166 118.718 34.359 118.718 33.9574C118.718 33.7042 118.656 33.5034 118.534 33.355C118.412 33.2066 118.198 33.0756 117.893 32.9621C117.596 32.8399 117.172 32.7046 116.622 32.5562C115.741 32.3117 115.121 32.0062 114.763 31.6395C114.405 31.2728 114.226 30.7664 114.226 30.1204C114.226 29.3434 114.51 28.7453 115.077 28.3263C115.644 27.9072 116.469 27.6977 117.552 27.6977C118.058 27.6977 118.53 27.7326 118.966 27.8024C119.403 27.8723 119.757 27.9552 120.027 28.0512V29.6096C119.311 29.339 118.565 29.2037 117.788 29.2037C117.238 29.2037 116.806 29.2648 116.491 29.387C116.177 29.5005 116.02 29.745 116.02 30.1204C116.02 30.3386 116.077 30.5132 116.19 30.6442C116.304 30.7752 116.496 30.893 116.766 30.9978C117.046 31.1025 117.434 31.2204 117.932 31.3514C118.622 31.5347 119.154 31.753 119.53 32.0062C119.905 32.2593 120.162 32.5474 120.302 32.8705C120.451 33.1935 120.525 33.5558 120.525 33.9574C120.525 34.6908 120.245 35.2801 119.687 35.7253C119.128 36.1706 118.268 36.3932 117.107 36.3932ZM121.752 36.2623V27.8286H127.802V29.2037H123.52V31.3645H127.317V32.7264H123.52V34.9003H127.802V36.2623H121.752ZM131.648 36.3932C131.106 36.3932 130.6 36.3539 130.129 36.2754C129.666 36.1968 129.264 36.0833 128.924 35.9349V34.3765C129.308 34.5336 129.723 34.6602 130.168 34.7563C130.613 34.8523 131.05 34.9003 131.477 34.9003C132.089 34.9003 132.538 34.8436 132.826 34.7301C133.114 34.6166 133.258 34.359 133.258 33.9574C133.258 33.7042 133.197 33.5034 133.075 33.355C132.953 33.2066 132.739 33.0756 132.433 32.9621C132.137 32.8399 131.713 32.7046 131.163 32.5562C130.281 32.3117 129.662 32.0062 129.304 31.6395C128.946 31.2728 128.767 30.7664 128.767 30.1204C128.767 29.3434 129.05 28.7453 129.618 28.3263C130.185 27.9072 131.01 27.6977 132.093 27.6977C132.599 27.6977 133.071 27.7326 133.507 27.8024C133.944 27.8723 134.297 27.9552 134.568 28.0512V29.6096C133.852 29.339 133.106 29.2037 132.329 29.2037C131.779 29.2037 131.346 29.2648 131.032 29.387C130.718 29.5005 130.561 29.745 130.561 30.1204C130.561 30.3386 130.617 30.5132 130.731 30.6442C130.844 30.7752 131.037 30.893 131.307 30.9978C131.587 31.1025 131.975 31.2204 132.473 31.3514C133.162 31.5347 133.695 31.753 134.07 32.0062C134.446 32.2593 134.703 32.5474 134.843 32.8705C134.991 33.1935 135.066 33.5558 135.066 33.9574C135.066 34.6908 134.786 35.2801 134.228 35.7253C133.669 36.1706 132.809 36.3932 131.648 36.3932Z" fill="black"/>
<path d="M18.7967 31.1934L37.1114 31.1951L33.969 36.6415H15.6504L18.7967 31.1934Z" fill="#12DD78"/>
<path d="M49.1729 10.1413L46.1191 15.5173H33.8125L33.8115 15.5182H27.8428L27.8438 15.5173H21.8008L6.0127 40.986L2.7002 36.3015L15.4863 15.5173H3.10352L0 10.1413H49.1729ZM30.835 20.6901H43.1602L40.0449 26.1345H21.7139L24.8613 20.6833H30.8389L30.835 20.6901Z" fill="#12DD78"/>
<path d="M46.9407 16.4814C47.6151 18.6655 47.9787 20.9861 47.9788 23.3916L47.9709 23.9961C47.6506 36.636 37.3033 46.7842 24.5862 46.7842L23.9827 46.7764C17.6878 46.6168 12.0118 43.9697 7.89868 39.7822L9.18677 37.6914C13.0243 41.8225 18.503 44.4081 24.5862 44.4082C36.1931 44.4082 45.6028 34.9986 45.6028 23.3916C45.6027 20.9706 45.1921 18.6457 44.4387 16.4814H46.9407ZM5.38208 31.9375C6.19173 33.7543 7.25153 35.4347 8.51782 36.9355L7.21313 39.0527C5.92699 37.6268 4.81252 36.0431 3.90552 34.332L5.38208 31.9375ZM4.73462 16.4814C3.98132 18.6457 3.57061 20.9706 3.57056 23.3916C3.57056 26.0144 4.05222 28.5246 4.92993 30.8398L3.40161 33.3213C1.98637 30.307 1.19458 26.9419 1.19458 23.3916C1.19462 20.9861 1.55824 18.6655 2.23267 16.4814H4.73462ZM24.5862 0C32.1571 0 38.8869 3.59779 43.1624 9.17578H40.0637C36.2224 4.99606 30.7104 2.37598 24.5862 2.37598C18.4624 2.37611 12.9517 4.99651 9.1106 9.17578H6.01099C10.2862 3.59795 17.0154 0.000145992 24.5862 0Z" fill="#12DD78"/>
</svg>
